<svg xmlns="http://www.w3.org/2000/svg" xmlns:xlink="http://www.w3.org/1999/xlink" width="320pt" height="404pt" viewBox="0 0 388.02 404"><g id="graph0" class="graph" transform="scale(1 1) rotate(0) translate(4 400)"><title>G</title><polygon fill="#fff" stroke="transparent" points="-4 4 -4 -400 384.017 -400 384.017 4 -4 4"/><g id="node1" class="node"><title>scan lineitem</title><ellipse cx="62.257" cy="-378" fill="none" stroke="#000" rx="62.015" ry="18"/><text x="62.257" y="-373.8" fill="#000" font-family="Times,serif" font-size="14" text-anchor="middle">scan lineitem</text></g><g id="node2" class="node"><title>filter</title><ellipse cx="86.257" cy="-306" fill="none" stroke="#000" rx="29.609" ry="18"/><text x="86.257" y="-301.8" fill="#000" font-family="Times,serif" font-size="14" text-anchor="middle">filter</text></g><g id="edge1" class="edge"><title>scan lineitem-&gt;filter</title><path fill="none" stroke="#000" d="M68.3132,-359.8314C70.9767,-351.8406 74.163,-342.2819 77.1065,-333.4514"/><polygon fill="#000" stroke="#000" points="80.444 -334.507 80.286 -323.913 73.803 -332.293 80.444 -334.507"/></g><g id="node3" class="node"><title>join</title><ellipse cx="184.257" cy="-234" fill="none" stroke="#000" rx="27" ry="18"/><text x="184.257" y="-229.8" fill="#000" font-family="Times,serif" font-size="14" text-anchor="middle">join</text></g><g id="edge2" class="edge"><title>filter-&gt;join</title><path fill="none" stroke="#000" d="M105.6186,-291.7751C120.5341,-280.8168 141.3184,-265.5467 157.7735,-253.4572"/><polygon fill="#000" stroke="#000" points="159.943 -256.206 165.93 -247.465 155.799 -250.565 159.943 -256.206"/></g><g id="node4" class="node"><title>join again</title><ellipse cx="231.257" cy="-162" fill="none" stroke="#000" rx="49.278" ry="18"/><text x="231.257" y="-157.8" fill="#000" font-family="Times,serif" font-size="14" text-anchor="middle">join again</text></g><g id="edge3" class="edge"><title>join-&gt;join again</title><path fill="none" stroke="#000" d="M195.1578,-217.3008C200.8051,-208.6496 207.8305,-197.8873 214.1788,-188.1623"/><polygon fill="#000" stroke="#000" points="217.224 -189.9 219.759 -179.613 211.362 -186.074 217.224 -189.9"/></g><g id="node9" class="node"><title>filter again</title><ellipse cx="231.257" cy="-90" fill="none" stroke="#000" rx="53.264" ry="18"/><text x="231.257" y="-85.8" fill="#000" font-family="Times,serif" font-size="14" text-anchor="middle">filter again</text></g><g id="edge8" class="edge"><title>join again-&gt;filter again</title><path fill="none" stroke="#000" d="M231.2569,-143.8314C231.2569,-136.131 231.2569,-126.9743 231.2569,-118.4166"/><polygon fill="#000" stroke="#000" points="234.757 -118.413 231.257 -108.413 227.757 -118.413 234.757 -118.413"/></g><g id="node5" class="node"><title>scan orders</title><ellipse cx="197.257" cy="-378" fill="none" stroke="#000" rx="54.975" ry="18"/><text x="197.257" y="-373.8" fill="#000" font-family="Times,serif" font-size="14" text-anchor="middle">scan orders</text></g><g id="node6" class="node"><title>project</title><ellipse cx="184.257" cy="-306" fill="none" stroke="#000" rx="37.699" ry="18"/><text x="184.257" y="-301.8" fill="#000" font-family="Times,serif" font-size="14" text-anchor="middle">project</text></g><g id="edge4" class="edge"><title>scan orders-&gt;project</title><path fill="none" stroke="#000" d="M193.9765,-359.8314C192.5861,-352.131 190.9329,-342.9743 189.3877,-334.4166"/><polygon fill="#000" stroke="#000" points="192.803 -333.632 187.582 -324.413 185.914 -334.876 192.803 -333.632"/></g><g id="edge5" class="edge"><title>project-&gt;join</title><path fill="none" stroke="#000" d="M184.2569,-287.8314C184.2569,-280.131 184.2569,-270.9743 184.2569,-262.4166"/><polygon fill="#000" stroke="#000" points="187.757 -262.413 184.257 -252.413 180.757 -262.413 187.757 -262.413"/></g><g id="node7" class="node"><title>scan customers</title><ellipse cx="310.257" cy="-306" fill="none" stroke="#000" rx="69.522" ry="18"/><text x="310.257" y="-301.8" fill="#000" font-family="Times,serif" font-size="14" text-anchor="middle">scan customers</text></g><g id="node8" class="node"><title>aggregate</title><ellipse cx="294.257" cy="-234" fill="none" stroke="#000" rx="48.635" ry="18"/><text x="294.257" y="-229.8" fill="#000" font-family="Times,serif" font-size="14" text-anchor="middle">aggregate</text></g><g id="edge6" class="edge"><title>scan customers-&gt;aggregate</title><path fill="none" stroke="#000" d="M306.2195,-287.8314C304.5083,-280.131 302.4735,-270.9743 300.5717,-262.4166"/><polygon fill="#000" stroke="#000" points="303.935 -261.416 298.349 -252.413 297.101 -262.934 303.935 -261.416"/></g><g id="edge7" class="edge"><title>aggregate-&gt;join again</title><path fill="none" stroke="#000" d="M279.0064,-216.5708C271.1906,-207.6385 261.5369,-196.6056 252.9595,-186.8029"/><polygon fill="#000" stroke="#000" points="255.586 -184.49 246.367 -179.269 250.318 -189.099 255.586 -184.49"/></g><g id="node10" class="node"><title>write to disk</title><ellipse cx="231.257" cy="-18" fill="none" stroke="#000" rx="59.128" ry="18"/><text x="231.257" y="-13.8" fill="#000" font-family="Times,serif" font-size="14" text-anchor="middle">write to disk</text></g><g id="edge9" class="edge"><title>filter again-&gt;write to disk</title><path fill="none" stroke="#000" d="M231.2569,-71.8314C231.2569,-64.131 231.2569,-54.9743 231.2569,-46.4166"/><polygon fill="#000" stroke="#000" points="234.757 -46.413 231.257 -36.413 227.757 -46.413 234.757 -46.413"/></g></g></svg>